<?xml version="1.0" encoding="UTF-8" standalone="no"?>
<!DOCTYPE svg PUBLIC "-//W3C//DTD SVG 1.1//EN"
 "http://www.w3.org/Graphics/SVG/1.1/DTD/svg11.dtd">
<!-- Generated by graphviz version 2.46.0 (20210119.1425)
 -->
<!-- Title: dependencies Pages: 1 -->
<svg width="504pt" height="287pt"
 viewBox="0.00 0.00 504.00 287.00" xmlns="http://www.w3.org/2000/svg" xmlns:xlink="http://www.w3.org/1999/xlink">
<g id="graph0" class="graph" transform="scale(1 1) rotate(0) translate(4 283)">
<title>dependencies</title>
<polygon fill="white" stroke="transparent" points="-4,4 -4,-283 500,-283 500,4 -4,4"/>
<text text-anchor="start" x="227.01" y="-42.4" font-family="sans-serif" font-weight="bold" font-size="14.00">Legend</text>
<polygon fill="#ffffb3" stroke="transparent" points="14,-10 14,-30 34,-30 34,-10 14,-10"/>
<text text-anchor="start" x="37.63" y="-15.4" font-family="sans-serif" font-size="14.00"> &#160;Declarations</text>
<polygon fill="#8dd3c7" stroke="transparent" points="127,-10 127,-30 147,-30 147,-10 127,-10"/>
<text text-anchor="start" x="150.73" y="-15.4" font-family="sans-serif" font-size="14.00"> &#160;Module</text>
<polygon fill="#80b1d3" stroke="transparent" points="213,-10 213,-30 233,-30 233,-10 213,-10"/>
<text text-anchor="start" x="236.78" y="-15.4" font-family="sans-serif" font-size="14.00"> &#160;Bootstrap</text>
<polygon fill="#fdb462" stroke="transparent" points="310,-10 310,-30 330,-30 330,-10 310,-10"/>
<text text-anchor="start" x="333.67" y="-15.4" font-family="sans-serif" font-size="14.00"> &#160;Providers</text>
<polygon fill="#fb8072" stroke="transparent" points="406,-10 406,-30 426,-30 426,-10 406,-10"/>
<text text-anchor="start" x="429.73" y="-15.4" font-family="sans-serif" font-size="14.00"> &#160;Exports</text>
<g id="clust1" class="cluster">
<title>cluster_AppModule</title>
<polygon fill="none" stroke="black" stroke-dasharray="1,5" points="22,-146 22,-271 422,-271 422,-146 22,-146"/>
</g>
<g id="clust3" class="cluster">
<title>cluster_AppModule_imports</title>
<polygon fill="none" stroke="black" points="168,-154 168,-206 414,-206 414,-154 168,-154"/>
</g>
<g id="clust6" class="cluster">
<title>cluster_AppModule_providers</title>
<polygon fill="none" stroke="black" points="30,-154 30,-206 160,-206 160,-154 30,-154"/>
</g>
<g id="clust7" class="cluster">
<title>cluster_UsersModule</title>
<polygon fill="none" stroke="black" stroke-dasharray="1,5" points="114,-70 114,-138 270,-138 270,-70 114,-70"/>
</g>
<g id="clust12" class="cluster">
<title>cluster_UsersModule_providers</title>
<polygon fill="none" stroke="black" points="122,-78 122,-130 262,-130 262,-78 122,-78"/>
</g>
<g id="clust13" class="cluster">
<title>cluster_UserTypesModule</title>
<polygon fill="none" stroke="black" stroke-dasharray="1,5" points="278,-70 278,-138 474,-138 474,-70 278,-70"/>
</g>
<g id="clust18" class="cluster">
<title>cluster_UserTypesModule_providers</title>
<polygon fill="none" stroke="black" points="286,-78 286,-130 466,-130 466,-78 286,-78"/>
</g>
<!-- UserTypesModule -->
<g id="node1" class="node">
<title>UserTypesModule</title>
<polygon fill="#8dd3c7" stroke="black" points="406.19,-198 403.19,-202 382.19,-202 379.19,-198 285.81,-198 285.81,-162 406.19,-162 406.19,-198"/>
<text text-anchor="middle" x="346" y="-175.8" font-family="Times,serif" font-size="14.00">UserTypesModule</text>
</g>
<!-- AppModule -->
<g id="node3" class="node">
<title>AppModule</title>
<polygon fill="#8dd3c7" stroke="black" points="263.66,-263 260.66,-267 239.66,-267 236.66,-263 180.34,-263 180.34,-227 263.66,-227 263.66,-263"/>
<text text-anchor="middle" x="222" y="-240.8" font-family="Times,serif" font-size="14.00">AppModule</text>
</g>
<!-- UserTypesModule&#45;&gt;AppModule -->
<g id="edge1" class="edge">
<title>UserTypesModule&#45;&gt;AppModule</title>
<path fill="none" stroke="black" d="M346,-198.11C346,-217.34 346,-245 346,-245 346,-245 273.98,-245 273.98,-245"/>
<polygon fill="black" stroke="black" points="273.98,-241.5 263.98,-245 273.98,-248.5 273.98,-241.5"/>
</g>
<!-- UsersModule -->
<g id="node2" class="node">
<title>UsersModule</title>
<polygon fill="#8dd3c7" stroke="black" points="267.92,-198 264.92,-202 243.92,-202 240.92,-198 176.08,-198 176.08,-162 267.92,-162 267.92,-198"/>
<text text-anchor="middle" x="222" y="-175.8" font-family="Times,serif" font-size="14.00">UsersModule</text>
</g>
<!-- UsersModule&#45;&gt;AppModule -->
<g id="edge2" class="edge">
<title>UsersModule&#45;&gt;AppModule</title>
<path fill="none" stroke="black" d="M222,-198.11C222,-198.11 222,-216.99 222,-216.99"/>
<polygon fill="black" stroke="black" points="218.5,-216.99 222,-226.99 225.5,-216.99 218.5,-216.99"/>
</g>
<!-- AppService -->
<g id="node4" class="node">
<title>AppService</title>
<ellipse fill="#fdb462" stroke="black" cx="95" cy="-180" rx="56.74" ry="18"/>
<text text-anchor="middle" x="95" y="-175.8" font-family="Times,serif" font-size="14.00">AppService</text>
</g>
<!-- AppService&#45;&gt;AppModule -->
<g id="edge3" class="edge">
<title>AppService&#45;&gt;AppModule</title>
<path fill="none" stroke="black" d="M95,-198.11C95,-217.34 95,-245 95,-245 95,-245 170.06,-245 170.06,-245"/>
<polygon fill="black" stroke="black" points="170.06,-248.5 180.06,-245 170.06,-241.5 170.06,-248.5"/>
</g>
<!-- UsersService -->
<g id="node5" class="node">
<title>UsersService</title>
<ellipse fill="#fdb462" stroke="black" cx="192" cy="-104" rx="61.95" ry="18"/>
<text text-anchor="middle" x="192" y="-99.8" font-family="Times,serif" font-size="14.00">UsersService</text>
</g>
<!-- UsersService&#45;&gt;UsersModule -->
<g id="edge4" class="edge">
<title>UsersService&#45;&gt;UsersModule</title>
<path fill="none" stroke="black" d="M215.13,-120.87C215.13,-120.87 215.13,-151.85 215.13,-151.85"/>
<polygon fill="black" stroke="black" points="211.63,-151.85 215.13,-161.85 218.63,-151.85 211.63,-151.85"/>
</g>
<!-- UserTypesService -->
<g id="node6" class="node">
<title>UserTypesService</title>
<ellipse fill="#fdb462" stroke="black" cx="376" cy="-104" rx="81.64" ry="18"/>
<text text-anchor="middle" x="376" y="-99.8" font-family="Times,serif" font-size="14.00">UserTypesService</text>
</g>
<!-- UserTypesService&#45;&gt;UserTypesModule -->
<g id="edge5" class="edge">
<title>UserTypesService&#45;&gt;UserTypesModule</title>
<path fill="none" stroke="black" d="M350.14,-121.25C350.14,-121.25 350.14,-151.76 350.14,-151.76"/>
<polygon fill="black" stroke="black" points="346.64,-151.76 350.14,-161.76 353.64,-151.76 346.64,-151.76"/>
</g>
</g>
</svg>
